<svg xmlns="http://www.w3.org/2000/svg" xmlns:xlink="http://www.w3.org/1999/xlink" version="1.1" width="512" height="512" x="0" y="0" viewBox="0 0 512.089 512.089" style="enable-background:new 0 0 512 512" xml:space="preserve" class="">
  <g>
    <path d="m398.943 354.53-118.182-98.485 118.182-98.485c11.165-9.304 11.165-26.453 0-35.757L259.307 5.439c-15.158-12.632-38.172-1.853-38.172 17.879V199.86L144.5 123.225c-9.089-9.089-23.824-9.089-32.913 0s-9.089 23.824 0 32.913l99.907 99.907-99.907 99.907c-9.089 9.089-9.089 23.824 0 32.913s23.824 9.089 32.913 0l76.635-76.635v176.542c0 19.732 23.013 30.51 38.172 17.879l139.636-116.364c11.166-9.305 11.166-26.453 0-35.757zM267.681 73.005l80.01 66.675-80.01 66.675V73.005zm0 366.078v-133.35l80.01 66.675-80.01 66.675z" fill="#000000" opacity="1" data-original="#000000" class=""/>
  </g>
</svg>
