<svg xmlns="http://www.w3.org/2000/svg" xmlns:xlink="http://www.w3.org/1999/xlink" version="1.1" width="512" height="512" x="0" y="0" viewBox="0 0 36 36" style="enable-background:new 0 0 512 512" xml:space="preserve" class="">
  <g>
    <path d="M33 .75H3A2.25 2.25 0 0 0 .75 3v30A2.25 2.25 0 0 0 3 35.25h30A2.25 2.25 0 0 0 35.25 33V3A2.25 2.25 0 0 0 33 .75Zm-.25 2.5V23l-6.45-6.47a3.33 3.33 0 0 0-4.6 0l-7 7-3-1.89a3.28 3.28 0 0 0-3.44 0l-5 3.14V3.25Zm-29.5 29.5v-5.06l6.35-4a.77.77 0 0 1 .8 0l6.94 4.34a1.21 1.21 0 0 0 .66.19 1.25 1.25 0 0 0 .66-2.31l-1.74-1.09 6.55-6.55a.75.75 0 0 1 1.06 0l8.22 8.22v6.23ZM11 17.25A5.25 5.25 0 1 0 5.75 12 5.26 5.26 0 0 0 11 17.25Zm0-8A2.75 2.75 0 1 1 8.25 12 2.75 2.75 0 0 1 11 9.25Z" data-name="Layer 47" fill="#000000" opacity="1" data-original="#000000" class=""/>
  </g>
</svg>
